<?xml version="1.0" encoding="utf-8"?>
<!-- Generator: Adobe Illustrator 25.4.1, SVG Export Plug-In . SVG Version: 6.00 Build 0)  -->
<svg version="1.1" id="Layer_1" xmlns="http://www.w3.org/2000/svg" xmlns:xlink="http://www.w3.org/1999/xlink" x="0px" y="0px"
	 viewBox="0 0 1200 1200" style="enable-background:new 0 0 1200 1200;" xml:space="preserve">
<style type="text/css">
	.st0{fill:#15A000;}
	.st1{fill:#033333;}
</style>
<path class="st0" d="M3,0h1194c1.7,0,3,1.3,3,3v1194c0,1.7-1.3,3-3,3H3c-1.7,0-3-1.3-3-3V3C0,1.3,1.3,0,3,0z"/>
<g>
	<g>
		<path class="st1" d="M594.8,440v171h165.5V440H594.8z M745.2,581.4c0,5.3-1.2,9.2-3.6,11.9c-2.2,2.5-5.2,3.8-8.9,3.9
			c-0.2,0-0.5,0-0.7,0c-3.8,0-6.9-1.3-9.3-4c-2.4-2.6-3.6-6.6-3.6-11.9v-76.9c0-2.7-3.9-3.2-4.6-0.6l-9.3,36.5l-8.6,33.6
			c-1.4,5.7-2.6,9.9-3.6,12.6c-0.9,2.7-2.6,5.1-5.1,7.3c-2.5,2.2-5.9,3.3-10.3,3.3c-3.3,0-6.1-0.7-8.5-2.1c-2.3-1.4-4.1-3.2-5.3-5.4
			c-1.3-2.2-2.3-4.6-3-7.3c-0.7-2.7-1.5-5.5-2.2-8.4l-8.6-33.6l-9.3-36.5c-0.7-2.6-4.6-2.1-4.6,0.6v76.9c0,5.3-1.2,9.2-3.6,11.9
			c-2.4,2.6-5.6,4-9.5,4c-0.2,0-0.4,0-0.6,0c-3.5-0.1-6.5-1.4-8.8-3.9c-2.4-2.6-3.7-6.6-3.7-11.9V472c0-6.1,1.6-10.1,4.8-12.2
			c2-1.4,4.6-2.3,7.6-2.8c1.6-0.2,3.4-0.4,5.3-0.4h8.8c5.3,0,9.1,0.5,11.5,1.4c0.7,0.3,1.4,0.6,2,1c1.4,1,2.5,2.3,3.3,4
			c1.1,2.5,2.5,6.5,3.9,12l18.1,67.4c0.3,1.1,1.3,1.7,2.3,1.7c0.9,0,1.9-0.6,2.2-1.7l18.1-67.4c1.5-5.5,2.8-9.5,3.9-12
			c0.8-1.7,1.9-3,3.3-4c0.6-0.4,1.3-0.7,2-1c2.4-0.9,6.2-1.4,11.5-1.4h8.8c1.9,0,3.7,0.1,5.3,0.4c3,0.5,5.6,1.4,7.7,2.8
			c3.2,2.1,4.8,6.2,4.8,12.2V581.4z"/>
		<path class="st1" d="M811.9,669c-1.1-6-3.5-11.6-6.9-16.6c-1-1.5-2.1-3-3.4-4.4c-4.3-4.9-9.7-8.9-15.9-11.4
			c-1.4-0.6-2.9-1.1-4.4-1.6c-4-1.2-8.4-1.9-12.8-1.9c-0.7,0-1.4,0-2.2,0c-0.2,0-0.3,0-0.5,0h-5.5v-13.8H594.8v13.8h-5.5
			c-1.5,0-2.7,1.2-2.7,2.7v13.8c0,1.5,1.2,2.7,2.7,2.7h5.5v11c0,3,2.5,5.5,5.5,5.5h154.5c3,0,5.5-2.5,5.5-5.5v-11h8.3
			c4.7,0,9.1,1.3,12.8,3.6c1.2,0.7,2.4,1.6,3.5,2.5c3.2,2.8,5.6,6.4,7.1,10.4c0.9,2.6,1.4,5.4,1.4,8.3c0,9-4.8,16.9-12,21.2
			c-1.6,1-3.4,1.8-5.3,2.4c-2.4,0.8-4.9,1.2-7.6,1.2H711c-0.6,0-1.1,0.1-1.7,0.2c-2.4,0.7-4.1,2.9-4.1,5.5v46.3
			c0,3.2,2.6,5.8,5.8,5.8h7.7c3.2,0,5.8-2.6,5.8-5.8v-32.8h44.1c4.5,0,8.8-0.6,12.8-1.9c8-2.4,15-7,20.3-13c1.2-1.4,2.3-2.8,3.4-4.4
			c4.8-7.1,7.7-15.6,7.7-24.8C812.7,674.4,812.5,671.6,811.9,669z M753.4,633.1H601.7v-8.3h151.7V633.1z"/>
		<g>
			<path class="st1" d="M448.8,633.1c-0.1,2.1-0.1,4.1-0.1,6.2c0,4.4,0.2,8.8,0.6,13.1c0.5,5.6,1.4,11.1,2.6,16.6
				c2.6,11.7,6.6,22.8,11.9,33.1c3.5,6.8,7.5,13.2,12,19.3c8.2,11,18,20.8,29,29c4.8,3.5,9.8,6.8,15,9.7h-91.8
				c-2.4-3.1-4.7-6.4-6.9-9.7c-6.1-9.1-11.6-18.8-16.1-29c-2.8-6.3-5.4-12.7-7.5-19.3c-3.5-10.7-6.2-21.7-7.9-33.1
				c-0.6-4.3-1.1-8.6-1.5-13c-0.5-5.5-0.7-11.1-0.7-16.7c0-5.6,0.2-11.2,0.7-16.7c0.1-1.1,0.2-2.2,0.3-3.3c0.5-4.6,1.1-9.2,1.9-13.8
				c0.5-2.8,1-5.5,1.6-8.3c13.6-63.3,57.2-115.4,115.2-140.7c7.3-3.2,14.9-6,22.6-8.3c18.1-5.4,37.2-8.3,57-8.3v61.4
				c-61.5,0-113.6,40.3-131.4,95.9c-0.9,2.7-1.7,5.5-2.4,8.3c-1.1,4.5-2.1,9.1-2.7,13.8C449.4,623.8,449,628.4,448.8,633.1z"/>
		</g>
		<path class="st1" d="M696.9,702.1V760H539.1c-6.8-2.7-13.3-5.9-19.5-9.7c-12.7-7.7-24-17.5-33.4-29c-4.9-6-9.3-12.5-13.1-19.3
			H696.9z"/>
	</g>
</g>
</svg>
